<svg width="1199" height="125" viewBox="0 0 1199 125" fill="none" xmlns="http://www.w3.org/2000/svg">
<path fill-rule="evenodd" clip-rule="evenodd" d="M40.8443 3.38184L0.742188 119.903H27.9535L36.0109 95.4761H97.3729L105.429 119.903H132.464L92.3599 3.38184H40.8443ZM60.3592 21.2066H72.8468L91.2859 76.8267H42.098L60.3592 21.2066Z" fill="white"/>
<path fill-rule="evenodd" clip-rule="evenodd" d="M160.985 54.6277H276.162C283.887 54.6277 289.414 53.1982 292.744 50.3326C296.071 47.4703 297.737 43.0664 297.737 37.1192C297.737 31.5035 296.043 27.4569 292.655 24.9796C289.267 22.5023 283.767 21.2629 276.162 21.2629H160.985V54.6277ZM269.744 72.1361H160.985V119.54H134.773V2.9292H283.652C298.033 2.9292 308.462 5.90196 314.943 11.8491C321.42 17.7946 324.66 25.9998 324.66 36.4597C324.66 55.7291 315.566 67.1799 297.379 70.8138L333.397 119.54H304.334L269.744 72.1361Z" fill="white"/>
<path fill-rule="evenodd" clip-rule="evenodd" d="M366.526 22.7502H293.289V2.93018L490.001 2.93033C490.001 2.93033 477.357 10.071 473.458 22.7504C455.914 22.7504 392.559 22.7502 392.559 22.7502V119.539H366.526V22.7502Z" fill="white"/>
<mask id="mask0_235_467" style="mask-type:alpha" maskUnits="userSpaceOnUse" x="474" y="0" width="196" height="123">
<path d="M474.727 0.122559H669.424V122.347H474.727V0.122559Z" fill="#ECB45B"/>
</mask>
<g mask="url(#mask0_235_467)">
<path fill-rule="evenodd" clip-rule="evenodd" d="M500.135 114.253C491.398 108.86 484.98 101.563 480.878 92.3687C476.777 83.1759 474.727 72.7972 474.727 61.2343C474.727 49.673 476.747 39.296 480.791 30.0999C484.829 20.9071 491.219 13.6116 499.958 8.21514C508.21 3.12083 518.611 0.429094 531.16 0.146437C531.897 0.130193 614.47 0.12207 615.221 0.12207C625.562 0.12207 634.744 1.99507 642.768 5.73783C650.791 9.48222 657.09 14.7958 661.667 21.677C666.243 28.5599 668.649 36.5701 668.889 45.7093H641.43C641.19 37.7803 638.667 31.6431 633.853 27.2928C629.037 22.9441 622.411 20.7674 613.972 20.7674C612.941 20.7674 530.106 20.7982 529.133 20.8583C519.453 21.4626 512.672 25.0657 508.784 31.6691C504.503 38.937 502.364 48.7389 502.364 61.0686C502.364 69.3274 503.193 76.4035 504.861 82.2938C506.523 88.1857 509.555 92.8642 513.954 96.3324C517.801 99.3669 522.971 101.074 529.457 101.454C530.385 101.508 613.171 101.536 614.151 101.536C623.066 101.536 629.809 99.4709 634.388 95.3415C638.963 91.2121 641.49 85.2406 641.965 77.4204H669.424C669.304 86.4508 666.867 94.3506 662.113 101.123C657.359 107.895 650.909 113.126 642.768 116.814C634.625 120.501 625.5 122.347 615.398 122.347C614.588 122.347 531.955 122.337 531.16 122.317C518.692 122.015 508.351 119.325 500.135 114.253Z" fill="white"/>
</g>
<path fill-rule="evenodd" clip-rule="evenodd" d="M678.16 2.92969H704.372V50.3331H812.92V2.92969H839.13V119.538H812.92V70.6486H704.372V119.538H678.16V2.92969Z" fill="white"/>
<path fill-rule="evenodd" clip-rule="evenodd" d="M851.832 119.538H878.042V2.92944H851.832V119.538Z" fill="white"/>
<path fill-rule="evenodd" clip-rule="evenodd" d="M1012.32 2.92969L967.214 119.538H930.272L884.98 2.92969H912.441L943.287 89.8091L954.452 89.7734L985.043 2.92969H1012.32Z" fill="white"/>
<path fill-rule="evenodd" clip-rule="evenodd" d="M1017.91 2.92969H1139.15V22.7497H1044.12V50.3331H1094.04V70.1532H1044.12V99.7184H1139.15V119.538H1017.91V2.92969Z" fill="white"/>
<path d="M1185.16 105.913C1185.16 110.291 1184.86 113.574 1184.27 115.763C1183.6 118.36 1182.45 120.141 1180.82 121.106C1179.15 122.07 1176.72 122.516 1173.53 122.441C1172.15 122.367 1169.43 122.33 1165.35 122.33C1161.27 122.33 1158.54 122.367 1157.17 122.441C1153.97 122.516 1151.54 122.07 1149.88 121.106C1148.17 120.141 1146.98 118.379 1146.31 115.819C1145.79 113.741 1145.53 110.439 1145.53 105.913C1145.53 101.869 1145.74 98.9194 1146.15 97.0644C1146.7 94.356 1147.76 92.4453 1149.32 91.3323C1150.88 90.2192 1153.21 89.5885 1156.33 89.4401L1161.34 89.2175L1161.34 99.513L1158.39 99.7356C1156.24 99.884 1154.75 100.311 1153.94 101.016C1153.08 101.683 1152.66 102.778 1152.66 104.299C1152.66 105.931 1153.08 107.1 1153.94 107.805C1154.79 108.51 1156.2 108.862 1158.17 108.862L1161.9 108.807C1162.67 108.77 1163.84 108.751 1165.4 108.751C1166.89 108.751 1168 108.77 1168.74 108.807L1172.36 108.862C1174.36 108.862 1175.81 108.51 1176.7 107.805C1177.59 107.1 1178.03 105.931 1178.03 104.299C1178.03 102.778 1177.61 101.683 1176.75 101.016C1175.86 100.311 1174.31 99.884 1172.08 99.7356L1169.07 99.513L1169.02 89.2175L1174.36 89.4401C1177.4 89.5514 1179.7 90.145 1181.26 91.221C1182.78 92.2598 1183.84 94.0592 1184.43 96.6191C1184.92 98.6597 1185.16 101.758 1185.16 105.913ZM1185.16 70.5743C1185.16 74.9522 1184.9 78.3284 1184.38 80.7028C1183.86 83.0773 1182.78 84.8581 1181.15 86.0454C1179.48 87.2326 1176.94 87.7706 1173.53 87.6593C1171.71 87.5851 1168.98 87.548 1165.35 87.548C1161.71 87.548 1158.98 87.5851 1157.17 87.6593C1153.75 87.7706 1151.21 87.2326 1149.54 86.0454C1147.87 84.821 1146.8 83.0216 1146.31 80.6472C1145.79 78.2727 1145.53 74.9151 1145.53 70.5743C1145.53 66.2335 1145.79 62.8758 1146.31 60.5014C1146.8 58.1269 1147.87 56.3461 1149.54 55.1588C1151.21 53.9345 1153.75 53.378 1157.17 53.4893C1158.98 53.5635 1161.71 53.6006 1165.35 53.6006C1168.98 53.6006 1171.71 53.5635 1173.53 53.4893C1176.94 53.378 1179.48 53.9159 1181.15 55.1032C1182.78 56.2904 1183.86 58.0712 1184.38 60.4457C1184.9 62.8202 1185.16 66.1964 1185.16 70.5743ZM1178.7 70.5743C1178.7 69.2386 1178.31 68.2555 1177.53 67.6247C1176.75 66.994 1175.47 66.6787 1173.69 66.6787L1165.35 66.7343L1157.05 66.6787C1155.27 66.6787 1153.99 66.994 1153.21 67.6247C1152.44 68.2555 1152.05 69.2386 1152.05 70.5743C1152.05 71.9099 1152.44 72.8931 1153.21 73.5238C1153.99 74.1545 1155.27 74.4699 1157.05 74.4699L1165.35 74.4142L1173.69 74.4699C1175.47 74.4699 1176.75 74.1545 1177.53 73.5238C1178.31 72.8931 1178.7 71.9099 1178.7 70.5743ZM1184.82 38.5438L1184.82 51.5663L1145.87 51.5663L1145.87 38.5438L1184.82 38.5438ZM1184.82 24.6079L1184.82 36.2947L1145.87 36.2947L1145.87 22.5488L1168.13 14.1455L1168.13 13.9229L1145.87 13.9229L1145.87 2.1804L1184.82 2.1804L1184.82 15.7593L1162.79 24.3853L1162.79 24.6079L1184.82 24.6079Z" fill="#ECB45B"/>
</svg>
