<svg width="296" height="35" viewBox="0 0 296 35" fill="none" xmlns="http://www.w3.org/2000/svg">
<path d="M6.77636 32.2885H0L9.98711 0.479248H22.8162L32.8033 32.2885H26.0707L24.0647 25.6195H8.78333L6.77736 32.2885H6.77636ZM14.847 5.35004L10.2992 20.529H22.5488L17.9563 5.35004H14.847Z" fill="black"/>
<path d="M40.1144 33.5239H33.5537V2.22656H70.8222C74.4008 2.22656 77.0409 3.03173 78.6552 4.62021C79.4895 5.49731 80.1357 6.53568 80.5542 7.67156C80.9726 8.80745 81.1545 10.0169 81.0886 11.2256C81.1982 13.4171 80.5987 15.5856 79.3789 17.4095C78.1085 19.0229 76.2827 20.1052 74.2576 20.4453L83.2725 33.5209H75.9982L67.3391 20.7972H40.1144V33.5209V33.5239ZM40.1144 7.14705V16.1014H68.9484C70.4263 16.2374 71.9028 15.8279 73.0996 14.9503C73.5449 14.4796 73.8863 13.9205 74.1016 13.3093C74.3168 12.6981 74.4012 12.0484 74.3491 11.4025C74.4048 10.7979 74.3188 10.1886 74.098 9.62293C73.8771 9.05731 73.5274 8.55096 73.0767 8.14408C71.8427 7.37881 70.3955 7.03034 68.9484 7.15004L40.1144 7.14705Z" fill="black"/>
<path d="M90.6961 7.54566H72.3621V2.22656H130.286V7.54566H97.213V33.5229H90.6961V7.54566Z" fill="black"/>
<path d="M135.264 32.1042C133.097 30.6815 131.416 28.6327 130.443 26.2305C129.381 23.5749 128.857 20.7345 128.902 17.8746C128.856 15.0168 129.372 12.1779 130.42 9.51869C131.379 7.11497 133.054 5.06436 135.218 3.64491C137.563 2.19679 140.273 1.44589 143.029 1.4799C143.216 1.47294 163.884 1.47294 164.072 1.47294C166.457 1.42781 168.819 1.94402 170.967 2.9799C172.916 3.93023 174.556 5.412 175.698 7.25427C176.874 9.20213 177.5 11.4322 177.51 13.7076H170.633C170.661 12.7991 170.508 11.8942 170.182 11.0457C169.856 10.1972 169.365 9.42193 168.737 8.76521C168.064 8.15914 167.278 7.69233 166.423 7.39171C165.569 7.0911 164.664 6.96262 163.76 7.01371C163.501 7.01371 142.766 7.02166 142.522 7.03856C141.491 7.02526 140.476 7.28714 139.581 7.7972C138.685 8.30726 137.942 9.04702 137.428 9.94016C136.246 12.3961 135.694 15.1074 135.82 17.8298C135.786 19.7476 135.996 21.662 136.445 23.5267C136.79 24.9902 137.587 26.3082 138.722 27.2941C139.83 28.1617 141.191 28.6443 142.599 28.6688C142.831 28.6828 163.555 28.6907 163.8 28.6907C165.643 28.8263 167.465 28.229 168.87 27.0287C170.096 25.7279 170.775 24.0058 170.767 22.2185H177.64C177.66 24.4717 177.024 26.6821 175.81 28.5804C174.614 30.4029 172.938 31.86 170.967 32.7911C168.827 33.8033 166.484 34.3114 164.117 34.2762C163.918 34.2762 143.228 34.2762 143.029 34.2683C140.288 34.2956 137.595 33.5453 135.264 32.1042Z" fill="black"/>
<path d="M179.828 2.22656H186.388V14.9503H213.562V2.22656H220.123V33.5229H213.562V20.4016H186.388V33.5229H179.828V2.22656Z" fill="black"/>
<path d="M223.303 33.5229H229.864V2.22656H223.303V33.5229Z" fill="black"/>
<path d="M263.48 2.22656L252.188 33.5229H242.943L231.602 2.22656H238.476L246.198 25.5437L248.993 25.5338L256.652 2.22656H263.48Z" fill="black"/>
<path d="M264.878 2.22656H295.23V7.54566H271.438V14.9503H283.937V20.2684H271.438V28.2028H295.23V33.5219H264.878V2.22656Z" fill="black"/>
</svg>
