<svg width="202" height="23" viewBox="0 0 202 23" fill="none" xmlns="http://www.w3.org/2000/svg">
<path d="M4.545 23H0L6.7 2H15.3L22 23H17.484L16.138 18.6H5.89L4.545 23ZM9.958 5.212L6.907 15.236H15.122L12.043 5.212H9.958Z" fill="white"/>
<path d="M27.3117 22.4959H22.8438V1.50488H48.2178C50.6568 1.50488 52.4508 2.04488 53.5508 3.11088C54.117 3.69545 54.5563 4.39067 54.8413 5.15298C55.1262 5.91529 55.2507 6.72824 55.2067 7.54088C55.2809 9.01296 54.8725 10.469 54.0438 11.6879C53.1727 12.774 51.9307 13.4996 50.5567 13.7249L56.6937 22.4939H51.7418L45.8438 13.9619H27.3117V22.4949V22.4959ZM27.3117 4.80488V10.8109H46.9438C47.9482 10.9025 48.9518 10.628 49.7698 10.0379C50.072 9.72424 50.3042 9.34995 50.4509 8.93982C50.5976 8.52969 50.6555 8.09308 50.6208 7.65888C50.6581 7.25226 50.5992 6.84255 50.4487 6.46294C50.2983 6.08333 50.0605 5.7445 49.7547 5.47388C48.9121 4.95919 47.9279 4.72497 46.9438 4.80488H27.3117Z" fill="white"/>
<path d="M61.7476 5.07288H49.2656V1.50488H88.7016V5.07288H66.1846V22.4939H61.7476V5.07288Z" fill="white"/>
<path d="M92.0896 21.543C90.6192 20.594 89.474 19.2182 88.8076 17.6C88.0856 15.8227 87.7291 13.9181 87.7596 12C87.7296 10.0832 88.0811 8.17966 88.7936 6.4C89.4505 4.78086 90.5911 3.40388 92.0596 2.457C93.6607 1.48255 95.5034 0.977691 97.3776 1C97.5036 1 111.578 1 111.705 1C113.328 0.968656 114.937 1.31474 116.405 2.011C117.725 2.64573 118.84 3.64015 119.621 4.88C120.419 6.18229 120.845 7.67856 120.852 9.206H116.172C116.19 8.59503 116.085 7.98668 115.863 7.41717C115.641 6.84766 115.306 6.32864 114.88 5.891C113.949 5.06783 112.732 4.64551 111.492 4.716C111.316 4.716 97.1976 4.722 97.0326 4.732C96.3334 4.72034 95.6435 4.89431 95.0334 5.23617C94.4233 5.57802 93.9148 6.07554 93.5596 6.678C92.7572 8.32234 92.3824 10.1424 92.4696 11.97C92.4463 13.2564 92.5895 14.5404 92.8956 15.79C93.1327 16.7748 93.6753 17.6593 94.4456 18.317C95.2041 18.9006 96.1307 19.224 97.0876 19.239C97.2456 19.249 111.356 19.254 111.523 19.254C112.774 19.3452 114.011 18.9453 114.972 18.139C115.803 17.2712 116.264 16.1146 116.26 14.913H120.94C120.952 16.4265 120.519 17.9102 119.694 19.179C118.875 20.4037 117.736 21.3796 116.4 22C114.94 22.6809 113.345 23.0228 111.735 23C111.597 23 97.5136 23 97.3776 22.995C95.5139 23.0143 93.6821 22.5113 92.0896 21.543" fill="white"/>
<path d="M122.431 1.50488H126.898V10.0369H145.398V1.50488H149.865V22.4939H145.399V13.6939H126.898V22.4939H122.431V1.50488Z" fill="white"/>
<path d="M152.031 22.4939H156.498V1.50488H152.031V22.4939Z" fill="white"/>
<path d="M179.382 1.50488L171.697 22.4939H165.397L157.682 1.50488H162.362L167.619 17.1429L169.519 17.1369L174.736 1.50488H179.382Z" fill="white"/>
<path d="M180.335 1.50488H200.999V5.07288H184.802V10.0369H193.311V13.6049H184.802V18.9269H201.002V22.4949H180.335V1.50488Z" fill="white"/>
</svg>
