<svg width="253" height="29" viewBox="0 0 253 29" fill="none" xmlns="http://www.w3.org/2000/svg">
<path d="M5.79466 27.201H0L8.54025 0H19.5107L28.051 27.201H22.2937L20.5784 21.4981H7.51087L5.79551 27.201H5.79466ZM12.6961 4.16515L8.80716 17.1451H19.2821L15.3549 4.16515H12.6961Z" fill="black"/>
<path d="M34.3029 28.2573H28.6927V1.49414H60.5621C63.6222 1.49414 65.8799 2.18267 67.2603 3.54101C67.9737 4.29105 68.5263 5.17899 68.8842 6.15031C69.242 7.12164 69.3975 8.15586 69.3412 9.18947C69.4349 11.0635 68.9222 12.9178 67.8791 14.4775C66.7928 15.8572 65.2315 16.7827 63.4998 17.0735L71.2087 28.2548H64.9882L57.5836 17.3744H34.3029V28.2548V28.2573ZM34.3029 5.70179V13.3589H58.9598C60.2235 13.4752 61.4861 13.125 62.5095 12.3745C62.8904 11.972 63.1823 11.4939 63.3664 10.9713C63.5504 10.4486 63.6225 9.8931 63.578 9.34077C63.6257 8.82372 63.5521 8.30267 63.3633 7.81898C63.1744 7.3353 62.8754 6.90231 62.49 6.55437C61.4348 5.89997 60.1972 5.60198 58.9598 5.70434L34.3029 5.70179Z" fill="black"/>
<path d="M77.5569 6.04265H61.8789V1.49414H111.411V6.04265H83.1297V28.2565H77.5569V6.04265Z" fill="black"/>
<path d="M115.668 27.0437C113.815 25.8271 112.377 24.075 111.546 22.0208C110.637 19.75 110.189 17.3211 110.227 14.8755C110.188 12.4317 110.629 10.0041 111.525 7.73013C112.345 5.67465 113.778 3.92111 115.628 2.7073C117.634 1.46897 119.951 0.826853 122.308 0.855935C122.468 0.849985 140.142 0.849985 140.302 0.849985C142.342 0.811396 144.362 1.25282 146.199 2.13863C147.865 2.95128 149.267 4.21839 150.244 5.79376C151.25 7.45943 151.785 9.36647 151.794 11.3122H145.913C145.937 10.5353 145.806 9.76153 145.527 9.03592C145.249 8.31032 144.829 7.64739 144.291 7.08581C143.716 6.56754 143.044 6.16836 142.313 5.9113C141.583 5.65423 140.809 5.54437 140.035 5.58805C139.814 5.58805 122.083 5.59485 121.874 5.6093C120.993 5.59793 120.125 5.82188 119.359 6.25804C118.593 6.69421 117.958 7.3268 117.518 8.09054C116.508 10.1907 116.035 12.5092 116.144 14.8372C116.114 16.4772 116.294 18.1142 116.678 19.7088C116.973 20.9603 117.654 22.0873 118.625 22.9304C119.573 23.6723 120.736 24.085 121.94 24.106C122.139 24.1179 139.86 24.1247 140.07 24.1247C141.646 24.2406 143.204 23.7299 144.405 22.7034C145.454 21.5911 146.034 20.1185 146.027 18.5901H151.905C151.922 20.5169 151.378 22.407 150.34 24.0303C149.317 25.5888 147.884 26.8348 146.199 27.631C144.369 28.4966 142.365 28.9311 140.341 28.901C140.171 28.901 122.478 28.901 122.308 28.8942C119.964 28.9176 117.662 28.2759 115.668 27.0437" fill="black"/>
<path d="M153.776 1.49414H159.386V12.3745H182.623V1.49414H188.233V28.2565H182.623V17.0361H159.386V28.2565H153.776V1.49414Z" fill="black"/>
<path d="M190.953 28.2565H196.563V1.49414H190.953V28.2565Z" fill="black"/>
<path d="M225.309 1.49414L215.653 28.2565H207.748L198.05 1.49414H203.928L210.531 21.4333L212.921 21.4248L219.47 1.49414H225.309Z" fill="black"/>
<path d="M226.504 1.49414H252.459V6.04265H232.114V12.3745H242.803V16.9222H232.114V23.7071H252.459V28.2556H226.504V1.49414Z" fill="black"/>
</svg>
