<svg width="75" height="75" viewBox="0 0 75 75" fill="none" xmlns="http://www.w3.org/2000/svg">
<path d="M72.2303 24.138L50.248 2.15571C47.6131 -0.47916 43.3269 -0.47916 40.6925 2.15571L2.07163 40.7761C-0.562939 43.411 -0.562939 47.6972 2.07163 50.3318L24.0539 72.3144C26.6888 74.9489 30.9751 74.9491 33.6095 72.3144L72.2301 33.6938C74.865 31.0589 74.8647 26.7725 72.2303 24.138ZM28.1057 69.6468C27.7907 69.5389 27.4905 69.3805 27.2389 69.129L5.25664 47.1469C5.25069 47.1407 5.24932 47.1329 5.24291 47.1266L28.1055 47.1265V69.6468H28.1057ZM6.59682 42.6218L42.5384 6.67998L42.5387 41.6394C42.5384 42.165 42.0812 42.6225 41.5555 42.6225L6.59682 42.6218ZM32.6097 66.9439V47.1266H41.5558C43.0222 47.1266 44.4004 46.5557 45.4361 45.52C46.472 44.4841 47.0426 43.1063 47.0427 41.6396V32.6936L66.859 32.6944L32.6097 66.9439ZM47.0426 28.1895V5.32684C47.0487 5.3331 47.0568 5.33447 47.063 5.34073L69.0453 27.323C69.2964 27.5743 69.455 27.8743 69.5623 28.1902L47.0426 28.1895Z" fill="#F5B347"/>
<path d="M2.29031 9.72811H25.3571C26.569 9.72811 27.5517 8.74564 27.5517 7.53365C27.5517 6.32166 26.5691 5.33904 25.3571 5.33904H2.29031C1.07817 5.33904 0.0957031 6.32151 0.0957031 7.53365C0.0957031 8.74564 1.07817 9.72811 2.29031 9.72811Z" fill="#F5B347"/>
<path d="M2.29031 18.3495H16.7548C17.9668 18.3495 18.9493 17.367 18.9493 16.1549C18.9493 14.9431 17.9668 13.9604 16.7548 13.9604H2.29031C1.07817 13.9604 0.0957031 14.9429 0.0957031 16.1549C0.0957031 17.367 1.07817 18.3495 2.29031 18.3495Z" fill="#F5B347"/>
<path d="M2.29031 26.7098H11.6293C12.8411 26.7098 13.8239 25.7273 13.8239 24.5152C13.8239 23.3031 12.8412 22.3206 11.6293 22.3206H2.29031C1.07817 22.3206 0.0957031 23.3032 0.0957031 24.5152C0.0957031 25.7272 1.07817 26.7098 2.29031 26.7098Z" fill="#F5B347"/>
<path d="M11.6293 67.0629H2.29031C1.07817 67.0629 0.0957031 68.0455 0.0957031 69.2575C0.0957031 70.4695 1.07817 71.4521 2.29031 71.4521H11.6293C12.8411 71.4521 13.8239 70.4697 13.8239 69.2575C13.8239 68.0455 12.8412 67.0629 11.6293 67.0629Z" fill="#F5B347"/>
</svg>
